<svg xmlns="http://www.w3.org/2000/svg" width="230" height="230" id="no-connection-muted-large" data-supported-dps="230x230">
  <g fill="#fff">
    <path d="M37 144.3h12v2.7H37zM37 150h12v2H37zM52 144.3h4v12h-4zM37 155h12v1.3H37z"/>
  </g>
  <path d="M174 153.3v-6h-31.4a.53.53 0 01.3-.2 48.64 48.64 0 01-12.2 6.3.2.2 0 00.2-.1H174z" style="isolation:isolate" fill="#acb9c2" opacity=".15"/>
  <path d="M174 141.3v3h-27.4c-.1.1-.2.1-.3.2l-1.5 1.2a4.23 4.23 0 01-.7.5l-1.2.9a.53.53 0 01-.3.2H174v6h-43a.2.2 0 00-.2.1h-.1l-1.8.6c-.2.1-.4.1-.6.2-.4.1-.9.3-1.3.4l-1.1.3c-.3.1-.6.1-.8.2l-1.5.3c-.2 0-.3.1-.5.1l-1.8.3h-.2c-1 .1-2 .3-3 .4h-.2c-1 .1-2 .1-2.9.2h59v3h25v-18h-25v-.1zm7 15h-4v-12h4v12zm15 0h-12V155h12v1.3zm0-4.3h-12v-2h12v2zm0-5h-12v-2.7h12v2.7z" style="isolation:isolate" fill="#acb9c2" opacity=".45"/>
  <path d="M136.8 68.6a2.2 2.2 0 00.8.1 3.16 3.16 0 001.9-.7c-1.1-.7-2.3-1.4-3.2-1.9a5.51 5.51 0 00.5 2.5zM140.9 65.4a2 2 0 00-.1-.7 2.45 2.45 0 00-1.1-1.7 4.73 4.73 0 00-1.9.6c.9.4 1.9 1.1 3.1 1.8zM134 63.1a5.44 5.44 0 012.3-2.2 50.35 50.35 0 00-19.4-5.5h-5.8A48.56 48.56 0 0066 103.7v1a48.35 48.35 0 0020.5 39.5h13.6A42.82 42.82 0 0173 104.5v-.8a42.63 42.63 0 0140.9-42.6h.2a43.72 43.72 0 0119.1 5.3 7.53 7.53 0 01.8-3.3z" style="isolation:isolate" fill="#acb9c2" opacity=".15"/>
  <path d="M147.9 70.2a39.93 39.93 0 00-4.3-3.2 6 6 0 00-2.2-6.6c-.1-.1-.2-.1-.3-.2a.76.76 0 00-.4-.2v-.2h-.2a52.35 52.35 0 00-23.4-7.4h-6a51.47 51.47 0 00-48 51.3v1a51.37 51.37 0 0018.6 39.6h4.9A47.91 47.91 0 0166 104.8v-1a48.56 48.56 0 0145.1-48.3h5.8a48.66 48.66 0 0119.4 5.5 5.44 5.44 0 00-2.3 2.2 6.42 6.42 0 00-.8 3.5 44.1 44.1 0 00-19.1-5.3h-.2A42.61 42.61 0 0073 103.9v.8a42.73 42.73 0 0027.1 39.7h12.4a11.48 11.48 0 001.9-.1h.3A39.62 39.62 0 0176 104.8v-.8a39.71 39.71 0 0138-39.6 40.83 40.83 0 0120.3 6.4 6 6 0 007.7-1.1 23.4 23.4 0 013.8 2.8 1.28 1.28 0 001 .4 1.85 1.85 0 001.2-.5 1.68 1.68 0 00-.1-2.2zm-7-4.8c-1.2-.7-2.2-1.3-3.1-1.8a5.31 5.31 0 011.9-.6 3.37 3.37 0 011.1 1.7 1.48 1.48 0 01.1.7zm-4.1 3.2a7.29 7.29 0 01-.5-2.5c.9.5 2 1.2 3.2 1.9a3.16 3.16 0 01-1.9.7 2 2 0 01-.8-.1z" style="isolation:isolate" fill="#acb9c2" opacity=".45"/>
  <path d="M161.8 98.8a8.47 8.47 0 01-3 1.5 4.87 4.87 0 01-1.2.1 12.66 12.66 0 01-2.8-.6c.1 1.4.2 2.8.2 4.2v.8a42.64 42.64 0 01-42.6 42.6H59v6h54.6a48.48 48.48 0 0048.5-48.5v-1q-.15-2.7-.3-5.1zM154.8 94.8a5 5 0 00-.4 1.3 8.08 8.08 0 002 1.1c-.2-.9-.4-2.1-.6-3.4a2 2 0 00-1 1zM161.2 94.9c0-.2-.1-.3-.1-.5-.2-1.3-.7-1.7-1.9-1.7a.9.9 0 00-.5.1c.3 1.7.6 3.2.8 4a6.27 6.27 0 001.7-1.9z" style="isolation:isolate" fill="#acb9c2" opacity=".15"/>
  <path d="M164 93.8a4.71 4.71 0 00-4.9-4.1c-.4 0-.8.1-1.2.1-.4-2.1-.9-4-1-4.4a1.49 1.49 0 10-2.8 1 34.4 34.4 0 011 4.4c-.2.1-.3.2-.5.3a5.34 5.34 0 00-2.4 2.3 6.14 6.14 0 00-.7 4 36.83 36.83 0 01.6 6.6v.8a39.56 39.56 0 01-39.6 39.6H59v-3H34v18h25v-3h54.6a51.47 51.47 0 0051.4-51.5v-1a48.74 48.74 0 00-1-10.1zm-4.8-1.1a1.81 1.81 0 012 1.7c0 .2.1.3.1.5a6.17 6.17 0 01-1.8 1.8c-.1-.3-.4-2-.8-4h.5zm-4.4 2.1a2.41 2.41 0 011-1c.3 1.7.6 3 .7 3.4a6.64 6.64 0 01-2-1.1 1.44 1.44 0 01.3-1.3zM49 156.3H37V155h12v1.3zm0-4.3H37v-2h12v2zm0-5H37v-2.7h12v2.7zm7 9.3h-4v-12h4v12zm106-51.5a48.48 48.48 0 01-48.5 48.5H59v-6h53.4a42.64 42.64 0 0042.6-42.6v-.8c0-1.4-.1-2.8-.2-4.2a8.75 8.75 0 002.8.6 4.87 4.87 0 001.2-.1 8.47 8.47 0 003-1.5 43.61 43.61 0 01.3 5.1v1h-.1zM165.2 71.6l-9.1 8.7 16.2-8.4-4.6-2.3 6.3-7.8-12.3 8 3.5 1.8zM156.3 59.7L152 77.2l10.4-21.4-5.3-.2 2.8-14.3-7.4 18.9 3.8-.5z" style="isolation:isolate" fill="#acb9c2" opacity=".45"/>
  <g fill="#fff">
    <path d="M184 144.3h12v2.7h-12zM184 150h12v2h-12zM177 144.3h4v12h-4zM184 155h12v1.3h-12z"/>
  </g>
</svg>