<?xml version="1.0" encoding="UTF-8" standalone="no"?>
<svg xmlns="http://www.w3.org/2000/svg" height="56px" width="56px" version="1.1" xmlns:xlink="http://www.w3.org/1999/xlink" viewBox="0 0 56 56">
    <title>Sales Navigator - 120</title>
    <desc>Created with Sketch.</desc>
    <defs>
        <path id="a" d="m40.8 48h-33.6c-3.98 0-7.2-3.2-7.2-7.2v-33.6c0-3.98 3.22-7.2 7.2-7.2h33.6c4 0 7.2 3.22 7.2 7.2v33.6c0 4-3.2 7.2-7.2 7.2"/>
        <filter id="c" height="200%" width="200%" y="-50%" x="-50%" filterUnits="objectBoundingBox">
            <feOffset in="SourceAlpha" result="shadowOffsetOuter1" dx="0" dy="0"/>
            <feGaussianBlur stdDeviation="2" result="shadowBlurOuter1" in="shadowOffsetOuter1"/>
            <feColorMatrix type="matrix" values="0 0 0 0 0   0 0 0 0 0   0 0 0 0 0  0 0 0 0.15 0" in="shadowBlurOuter1"/>
        </filter>
        <linearGradient id="b" y1="-123%" x2="63.9%" x1="-55.9%" y2="61.1%">
        <stop stop-color="#5251C0" offset="0"/>
        <stop stop-color="#1074AF" offset="1"/>
        </linearGradient>
    </defs>
    <g id="Sales-Navigator" fill-rule="evenodd" fill="none">
        <g transform="translate(4 4)">
            <g id="App-Fill">
                <use filter="url(#c)" xlink:href="#a" fill="black"/>
                <use xlink:href="#a" fill-rule="evenodd" fill="#FFFFFF"/>
            </g>
            <g id="Icon" transform="translate(8 8)">
                <path fill="url(#b)" d="m0 16c0 8.8 7.16 16 16 16 8.8 0 16-7.2 16-16 0-8.84-7.2-16-16-16-8.84 0-16 7.16-16 16"/>
                <path fill="#fff" d="m13.2 13.2l9.9-5.24c0.3-0.15 0.6-0.07 0.8 0.12s0.3 0.5 0.1 0.8l-5.2 9.92-5.6-5.6z"/>
                <path fill="#98D8F4" d="m13.2 13.2l-5.24 9.9c-0.15 0.3-0.07 0.6 0.12 0.8s0.5 0.3 0.8 0.1l9.92-5.2-5.6-5.6z"/>
                <path fill="#fff" d="m20 16c0-2.2-1.8-4-4-4s-4 1.8-4 4 1.8 4 4 4 4-1.8 4-4"/>
                <path fill="#0073B1" d="m18.4 16c0-1.3-1.1-2.4-2.4-2.4s-2.4 1.1-2.4 2.4 1.1 2.4 2.4 2.4 2.4-1.1 2.4-2.4"/>
            </g>
        </g>
    </g>
</svg>